<svg width="96" height="96" viewBox="0 0 96 96" fill="none" xmlns="http://www.w3.org/2000/svg">
<g clip-path="url(#clip0_777_10953)">
<path d="M64.5999 44L53.1999 32.6C52.3999 31.8 52.0166 30.8666 52.0499 29.8C52.0832 28.7333 52.4666 27.8 53.1999 27C53.9999 26.2 54.9499 25.7833 56.0499 25.75C57.1499 25.7166 58.0999 26.1 58.8999 26.9L77.1999 45.2C77.9999 46 78.3999 46.9333 78.3999 48C78.3999 49.0666 77.9999 50 77.1999 50.8L58.8999 69.1C58.0999 69.9 57.1499 70.2833 56.0499 70.25C54.9499 70.2166 53.9999 69.8 53.1999 69C52.4666 68.2 52.0832 67.2666 52.0499 66.2C52.0166 65.1333 52.3999 64.2 53.1999 63.4L64.5999 52L19.9999 52C18.8666 52 17.9166 51.6166 17.1499 50.85C16.3832 50.0833 15.9999 49.1333 15.9999 48C15.9999 46.8666 16.3832 45.9166 17.1499 45.15C17.9166 44.3833 18.8666 44 19.9999 44L64.5999 44Z" fill="black"/>
</g>
<defs>
<clipPath id="clip0_777_10953">
<rect width="96" height="96" fill="white" transform="matrix(-1 0 0 -1 96 96)"/>
</clipPath>
</defs>
</svg>
