<svg width="96" height="96" viewBox="0 0 96 96" fill="none" xmlns="http://www.w3.org/2000/svg">
<g clip-path="url(#clip0_777_10950)">
<path d="M31.4001 52L42.8001 63.4C43.6001 64.2 43.9834 65.1334 43.9501 66.2C43.9168 67.2667 43.5334 68.2 42.8001 69C42.0001 69.8 41.0501 70.2167 39.9501 70.25C38.8501 70.2834 37.9001 69.9 37.1001 69.1L18.8001 50.8C18.0001 50 17.6001 49.0667 17.6001 48C17.6001 46.9334 18.0001 46 18.8001 45.2L37.1001 26.9C37.9001 26.1 38.8501 25.7167 39.9501 25.75C41.0501 25.7834 42.0001 26.2 42.8001 27C43.5334 27.8 43.9168 28.7334 43.9501 29.8C43.9834 30.8667 43.6001 31.8 42.8001 32.6L31.4001 44H76.0001C77.1334 44 78.0834 44.3834 78.8501 45.15C79.6168 45.9167 80.0001 46.8667 80.0001 48C80.0001 49.1334 79.6168 50.0834 78.8501 50.85C78.0834 51.6167 77.1334 52 76.0001 52H31.4001Z" fill="#7E9DED"/>
</g>
<defs>
<clipPath id="clip0_777_10950">
<rect width="96" height="96" fill="white"/>
</clipPath>
</defs>
</svg>
