<svg width="24" height="24" viewBox="0 0 24 24" fill="none" xmlns="http://www.w3.org/2000/svg">
<path d="M19.15 14.7L21.3 16.8L16.7 21.4C16.5167 21.5833 16.3042 21.7292 16.0625 21.8375C15.8208 21.9458 15.5667 22 15.3 22H15C14.7167 22 14.4792 21.9042 14.2875 21.7125C14.0958 21.5208 14 21.2833 14 21V20.7C14 20.4333 14.05 20.1792 14.15 19.9375C14.25 19.6958 14.3917 19.4833 14.575 19.3L19.15 14.7ZM22.025 16.1L19.9 13.975L20.6 13.275C20.8 13.075 21.0417 12.975 21.325 12.975C21.6083 12.975 21.8417 13.075 22.025 13.275L22.725 14C22.9083 14.2 23 14.4375 23 14.7125C23 14.9875 22.9083 15.2167 22.725 15.4L22.025 16.1ZM4 20C3.45 20 2.97917 19.8042 2.5875 19.4125C2.19583 19.0208 2 18.55 2 18V6C2 5.45 2.19583 4.97917 2.5875 4.5875C2.97917 4.19583 3.45 4 4 4H9.175C9.44167 4 9.69583 4.05 9.9375 4.15C10.1792 4.25 10.3917 4.39167 10.575 4.575L12 6H20C20.55 6 21.0208 6.19583 21.4125 6.5875C21.8042 6.97917 22 7.45 22 8V10.925C21.4833 10.925 20.975 10.9875 20.475 11.1125C19.975 11.2375 19.5417 11.4833 19.175 11.85L11.075 20H4Z" fill="black"/>
</svg>
