<svg width="14" height="14" viewBox="0 0 14 14" fill="none" xmlns="http://www.w3.org/2000/svg">
<path fill-rule="evenodd" clip-rule="evenodd" d="M13 2.33334C13 1.97972 12.8595 1.64058 12.6095 1.39053C12.3595 1.14048 12.0203 1.00001 11.6667 1.00001C11.3131 1.00001 10.974 1.14048 10.724 1.39053C10.4739 1.64058 10.3334 1.97972 10.3334 2.33334C10.3334 2.82534 10.6034 3.25067 11.0001 3.48201V6.05734L10.7241 6.33334H7.66689V3.49667C7.87648 3.38303 8.05159 3.21503 8.17382 3.01032C8.29605 2.80562 8.36089 2.57176 8.36153 2.33334C8.36153 1.97972 8.22106 1.64058 7.97102 1.39053C7.72098 1.14048 7.38185 1.00001 7.02825 1.00001C6.67464 1.00001 6.33552 1.14048 6.08548 1.39053C5.83544 1.64058 5.69497 1.97972 5.69497 2.33334C5.69497 2.81401 5.95163 3.23201 6.33361 3.46667V6.33334H3.00041V3.48201C3.25469 3.33593 3.45353 3.10986 3.56597 2.839C3.6784 2.56815 3.69812 2.26772 3.62205 1.9845C3.54598 1.70127 3.37839 1.45115 3.14538 1.27309C2.91237 1.09503 2.62702 0.999016 2.33378 1.00001C2.04053 0.999016 1.75518 1.09503 1.52217 1.27309C1.28916 1.45115 1.12157 1.70127 1.0455 1.9845C0.969433 2.26772 0.989149 2.56815 1.10158 2.839C1.21402 3.10986 1.41286 3.33593 1.66714 3.48201V10.518C1.27049 10.7493 1.0005 11.174 1.0005 11.6667C1.0005 12.0203 1.14097 12.3594 1.39101 12.6095C1.64104 12.8595 1.98017 13 2.33378 13C2.68738 13 3.02651 12.8595 3.27655 12.6095C3.52658 12.3594 3.66705 12.0203 3.66705 11.6667C3.66705 11.174 3.39706 10.7493 3.00041 10.518V7.66667H6.33361V10.5333C6.1388 10.6515 5.9777 10.8178 5.86585 11.0163C5.75399 11.2148 5.69514 11.4388 5.69497 11.6667C5.69497 12.0203 5.83544 12.3594 6.08548 12.6095C6.33552 12.8595 6.67464 13 7.02825 13C7.38185 13 7.72098 12.8595 7.97102 12.6095C8.22106 12.3594 8.36153 12.0203 8.36153 11.6667C8.36096 11.4282 8.29615 11.1943 8.17391 10.9896C8.05168 10.7849 7.87652 10.6169 7.66689 10.5033V7.66667H11.2761L12.3334 6.60934V3.48267C12.73 3.25067 13 2.82534 13 2.33334Z" fill="black"/>
</svg>
