<svg width="14" height="14" viewBox="0 0 14 14" fill="none" xmlns="http://www.w3.org/2000/svg">
<path fill-rule="evenodd" clip-rule="evenodd" d="M7.31579 1L7.94737 1.6V5.8H8.57895C9.34063 5.8 10.4737 6.2794 10.4737 7.6V11.2C10.4813 11.4694 10.5968 11.8 11.1053 11.8C11.6143 11.8 11.7293 11.47 11.7368 11.1934V3.652L10.8476 2.824H9.21053L8.57895 2.2L9.21053 1.624H11.3629L13 3.148V11.2C13 11.9236 12.4954 13 11.1053 13C9.71579 13 9.21053 11.9236 9.21053 11.2V7.6C9.21053 7.1164 8.86316 7.006 8.572 7H7.94737V13H1V1.6L1.63158 1H7.31579ZM6.68421 2.2H2.26316V11.8H6.68421V2.2ZM6.05074 2.8V5.2H2.89474V2.8H6.05074Z" fill="black"/>
</svg>
