<svg width="14" height="14" viewBox="0 0 14 14" fill="none" xmlns="http://www.w3.org/2000/svg">
<path fill-rule="evenodd" clip-rule="evenodd" d="M4.6036 1V1.6H9.4078V1H10.609V1.6H12.3994L13 2.2V12.4L12.4 13H1.6L1 12.4V2.2L1.6 1.6H3.4024V1H4.6036ZM11.7988 5.8H2.2012V11.8H11.7988V5.8ZM4.303 7C4.42119 6.99996 4.53823 7.0232 4.64744 7.06839C4.75665 7.11359 4.85588 7.17985 4.93948 7.26339C5.02308 7.34694 5.08941 7.44613 5.13468 7.55531C5.17994 7.66449 5.20326 7.78151 5.2033 7.8997C5.20334 8.01789 5.1801 8.13493 5.13491 8.24414C5.08971 8.35335 5.02345 8.45258 4.93991 8.53618C4.85636 8.61978 4.75717 8.68611 4.64799 8.73138C4.53881 8.77664 4.42179 8.79996 4.3036 8.8C4.06483 8.8 3.83583 8.70515 3.66699 8.53631C3.49815 8.36747 3.4033 8.13847 3.4033 7.8997C3.4033 7.66093 3.49815 7.43193 3.66699 7.26309C3.83583 7.09425 4.06483 6.9994 4.3036 6.9994L4.303 7ZM3.4024 2.8H2.2012V4.6H11.7988V2.8H10.609V3.4L10.0084 4L9.4078 3.4V2.8H4.6036V3.4L4.003 4L3.4024 3.4V2.8Z" fill="black"/>
</svg>
