<svg width="24" height="24" viewBox="0 0 24 24" fill="none" xmlns="http://www.w3.org/2000/svg">
<path d="M12 13.4L9.08317 16.325C8.89877 16.5084 8.66408 16.6 8.3791 16.6C8.09412 16.6 7.85942 16.5084 7.67502 16.325C7.49169 16.1417 7.40002 15.9084 7.40002 15.625C7.40002 15.3417 7.49169 15.1084 7.67502 14.925L10.6 12L7.67502 9.10825C7.49169 8.92383 7.40002 8.68913 7.40002 8.40415C7.40002 8.11915 7.49169 7.88445 7.67502 7.70005C7.85836 7.51672 8.09169 7.42505 8.37502 7.42505C8.65836 7.42505 8.89169 7.51672 9.07502 7.70005L12 10.625L14.8918 7.70005C15.0762 7.51672 15.3109 7.42505 15.5959 7.42505C15.8809 7.42505 16.1156 7.51672 16.3 7.70005C16.5 7.90005 16.6 8.13755 16.6 8.41255C16.6 8.68755 16.5 8.91672 16.3 9.10005L13.375 12L16.3 14.9169C16.4834 15.1013 16.575 15.336 16.575 15.621C16.575 15.906 16.4834 16.1406 16.3 16.325C16.1 16.525 15.8625 16.625 15.5875 16.625C15.3125 16.625 15.0834 16.525 14.9 16.325L12 13.4Z" fill="black"/>
</svg>
