<svg width="24" height="24" viewBox="0 0 24 24" fill="none" xmlns="http://www.w3.org/2000/svg">
<path d="M5 21C4.45 21 3.979 20.8043 3.587 20.413C3.19567 20.021 3 19.55 3 19V5C3 4.45 3.19567 3.979 3.587 3.587C3.979 3.19567 4.45 3 5 3H19C19.55 3 20.021 3.19567 20.413 3.587C20.8043 3.979 21 4.45 21 5V19C21 19.55 20.8043 20.021 20.413 20.413C20.021 20.8043 19.55 21 19 21H5ZM15.15 19H17.275L19 17.275V16H18.15L15.15 19ZM6.95 13.3C7.13333 13.4833 7.36667 13.575 7.65 13.575C7.93333 13.575 8.16667 13.4833 8.35 13.3L10.675 11L11.975 12.3C12.075 12.4 12.1833 12.4707 12.3 12.512C12.4167 12.554 12.5417 12.575 12.675 12.575C12.8083 12.575 12.9333 12.554 13.05 12.512C13.1667 12.4707 13.275 12.4 13.375 12.3L17.05 8.6C17.2333 8.41667 17.329 8.18733 17.337 7.912C17.3457 7.63733 17.25 7.4 17.05 7.2C16.8667 7.01667 16.6333 6.925 16.35 6.925C16.0667 6.925 15.8333 7.01667 15.65 7.2L12.675 10.175L11.375 8.875C11.275 8.775 11.1667 8.704 11.05 8.662C10.9333 8.62067 10.8083 8.6 10.675 8.6C10.5417 8.6 10.4167 8.62067 10.3 8.662C10.1833 8.704 10.075 8.775 9.975 8.875L6.95 11.9C6.76667 12.0833 6.671 12.3123 6.663 12.587C6.65433 12.8623 6.75 13.1 6.95 13.3ZM5 19H5.85L8.85 16H6.725L5 17.725V19ZM13.525 19L16.525 16H14.4L11.4 19H13.525ZM9.8 19L12.8 16H10.675L7.675 19H9.8Z" fill="black"/>
</svg>
