<svg width="24" height="24" viewBox="0 0 24 24" fill="none" xmlns="http://www.w3.org/2000/svg">
<path d="M8 17C7.45 17 6.97933 16.8043 6.588 16.413C6.196 16.021 6 15.55 6 15V9C6 8.71667 6.09567 8.479 6.287 8.287C6.479 8.09567 6.71667 8 7 8C7.28333 8 7.521 8.09567 7.713 8.287C7.90433 8.479 8 8.71667 8 9V15H16C16.2833 15 16.5207 15.0957 16.712 15.287C16.904 15.479 17 15.7167 17 16C17 16.2833 16.904 16.5207 16.712 16.712C16.5207 16.904 16.2833 17 16 17H8ZM12 13C11.45 13 10.9793 12.804 10.588 12.412C10.196 12.0207 10 11.55 10 11V5C10 4.45 10.196 3.979 10.588 3.587C10.9793 3.19567 11.45 3 12 3H20C20.55 3 21.021 3.19567 21.413 3.587C21.8043 3.979 22 4.45 22 5V11C22 11.55 21.8043 12.0207 21.413 12.412C21.021 12.804 20.55 13 20 13H12ZM12 11H20V7H12V11ZM4 21C3.45 21 2.97933 20.8043 2.588 20.413C2.196 20.021 2 19.55 2 19V13C2 12.7167 2.096 12.479 2.288 12.287C2.47933 12.0957 2.71667 12 3 12C3.28333 12 3.521 12.0957 3.713 12.287C3.90433 12.479 4 12.7167 4 13V19H12C12.2833 19 12.521 19.096 12.713 19.288C12.9043 19.4793 13 19.7167 13 20C13 20.2833 12.9043 20.5207 12.713 20.712C12.521 20.904 12.2833 21 12 21H4Z" fill="black"/>
</svg>
