<svg width="24" height="24" viewBox="0 0 24 24" fill="none" xmlns="http://www.w3.org/2000/svg">
<path d="M13.1 13C12.9667 13 12.85 12.95 12.75 12.85C12.65 12.75 12.6 12.6333 12.6 12.5V11.425C12.6 11.3917 12.65 11.275 12.75 11.075L17.575 6.25L19.35 8.025L14.525 12.85C14.4917 12.8833 14.375 12.9333 14.175 13H13.1ZM20 7.375L18.225 5.6L19.075 4.75C19.175 4.65 19.296 4.6 19.438 4.6C19.5793 4.6 19.7 4.65 19.8 4.75L20.85 5.8C20.95 5.9 21 6.02067 21 6.162C21 6.304 20.95 6.425 20.85 6.525L20 7.375ZM12 22C11.45 22 10.9793 21.8043 10.588 21.413C10.196 21.021 10 20.55 10 20H14C14 20.55 13.8043 21.021 13.413 21.413C13.021 21.8043 12.55 22 12 22ZM5 19C4.71667 19 4.479 18.904 4.287 18.712C4.09567 18.5207 4 18.2833 4 18C4 17.7167 4.09567 17.4793 4.287 17.288C4.479 17.096 4.71667 17 5 17H6V10C6 8.58333 6.425 7.34567 7.275 6.287C8.125 5.229 9.2 4.53333 10.5 4.2V3.5C10.5 3.08333 10.646 2.72933 10.938 2.438C11.2293 2.146 11.5833 2 12 2C12.4167 2 12.7707 2.146 13.062 2.438C13.354 2.72933 13.5 3.08333 13.5 3.5V4.2C13.9167 4.3 14.3083 4.44567 14.675 4.637C15.0417 4.829 15.3833 5.05 15.7 5.3L11.175 9.825C10.9917 10.0083 10.85 10.2207 10.75 10.462C10.65 10.704 10.6 10.9583 10.6 11.225V13C10.6 13.55 10.796 14.0207 11.188 14.412C11.5793 14.804 12.05 15 12.6 15H14.375C14.6417 15 14.8957 14.95 15.137 14.85C15.379 14.75 15.5917 14.6083 15.775 14.425L18 12.2V17H19C19.2833 17 19.5207 17.096 19.712 17.288C19.904 17.4793 20 17.7167 20 18C20 18.2833 19.904 18.5207 19.712 18.712C19.5207 18.904 19.2833 19 19 19H5Z" fill="black"/>
</svg>
