<svg width="24" height="24" viewBox="0 0 24 24" fill="none" xmlns="http://www.w3.org/2000/svg">
<path d="M19 17.7V19.5C19 19.6333 19.05 19.75 19.15 19.85C19.25 19.95 19.3667 20 19.5 20C19.6333 20 19.75 19.95 19.85 19.85C19.95 19.75 20 19.6333 20 19.5V16.5C20 16.3667 19.95 16.25 19.85 16.15C19.75 16.05 19.6333 16 19.5 16H16.5C16.3667 16 16.25 16.05 16.15 16.15C16.05 16.25 16 16.3667 16 16.5C16 16.6333 16.05 16.75 16.15 16.85C16.25 16.95 16.3667 17 16.5 17H18.3L15.85 19.45C15.75 19.55 15.7 19.6667 15.7 19.8C15.7 19.9333 15.75 20.05 15.85 20.15C15.95 20.25 16.0667 20.3 16.2 20.3C16.3333 20.3 16.45 20.25 16.55 20.15L19 17.7ZM18 23C16.6167 23 15.4377 22.5127 14.463 21.538C13.4877 20.5627 13 19.3833 13 18C13 16.6167 13.4877 15.4373 14.463 14.462C15.4377 13.4873 16.6167 13 18 13C19.3833 13 20.5627 13.4873 21.538 14.462C22.5127 15.4373 23 16.6167 23 18C23 19.3833 22.5127 20.5627 21.538 21.538C20.5627 22.5127 19.3833 23 18 23ZM8 9H16C16.2833 9 16.5207 8.904 16.712 8.712C16.904 8.52067 17 8.28333 17 8C17 7.71667 16.904 7.479 16.712 7.287C16.5207 7.09567 16.2833 7 16 7H8C7.71667 7 7.479 7.09567 7.287 7.287C7.09567 7.479 7 7.71667 7 8C7 8.28333 7.09567 8.52067 7.287 8.712C7.479 8.904 7.71667 9 8 9ZM11.675 21H5C4.45 21 3.979 20.8043 3.587 20.413C3.19567 20.021 3 19.55 3 19V5C3 4.45 3.19567 3.979 3.587 3.587C3.979 3.19567 4.45 3 5 3H19C19.55 3 20.021 3.19567 20.413 3.587C20.8043 3.979 21 4.45 21 5V11.7C20.5167 11.4667 20.0293 11.2917 19.538 11.175C19.046 11.0583 18.5333 11 18 11C17.8167 11 17.646 11.004 17.488 11.012C17.3293 11.0207 17.1667 11.0417 17 11.075C16.85 11.0417 16.6833 11.0207 16.5 11.012C16.3167 11.004 16.15 11 16 11H8C7.71667 11 7.479 11.0957 7.287 11.287C7.09567 11.479 7 11.7167 7 12C7 12.2833 7.09567 12.5207 7.287 12.712C7.479 12.904 7.71667 13 8 13H13.125C12.825 13.2833 12.554 13.5917 12.312 13.925C12.0707 14.2583 11.8583 14.6167 11.675 15H8C7.71667 15 7.479 15.0957 7.287 15.287C7.09567 15.479 7 15.7167 7 16C7 16.2833 7.09567 16.5207 7.287 16.712C7.479 16.904 7.71667 17 8 17H11.075C11.0417 17.1667 11.0207 17.3293 11.012 17.488C11.004 17.646 11 17.8167 11 18C11 18.55 11.05 19.0627 11.15 19.538C11.25 20.0127 11.425 20.5 11.675 21Z" fill="black"/>
</svg>
