<svg width="24" height="24" viewBox="0 0 24 24" fill="none" xmlns="http://www.w3.org/2000/svg">
<path d="M12 22C10.75 22 9.57917 21.7625 8.4875 21.2875C7.39583 20.8125 6.44583 20.1708 5.6375 19.3625C4.82917 18.5542 4.1875 17.6042 3.7125 16.5125C3.2375 15.4208 3 14.25 3 13C3 11.75 3.2375 10.5792 3.7125 9.48751C4.1875 8.39585 4.82917 7.44585 5.6375 6.63751C6.44583 5.82918 7.39583 5.18751 8.4875 4.71251C9.57917 4.23751 10.75 4.00001 12 4.00001H12.15L11.3 3.15001C11.1167 2.96668 11.025 2.73751 11.025 2.46251C11.025 2.18751 11.1167 1.95001 11.3 1.75001C11.5 1.55001 11.7375 1.44585 12.0125 1.43751C12.2875 1.42918 12.525 1.52501 12.725 1.72501L15.3 4.30001C15.4833 4.48335 15.575 4.71668 15.575 5.00001C15.575 5.28335 15.4833 5.51668 15.3 5.70001L12.725 8.27501C12.525 8.47501 12.2875 8.57085 12.0125 8.56251C11.7375 8.55418 11.5 8.45001 11.3 8.25001C11.1167 8.05001 11.025 7.81251 11.025 7.53751C11.025 7.26251 11.1167 7.03335 11.3 6.85001L12.15 6.00001H12C10.05 6.00001 8.39583 6.67918 7.0375 8.03751C5.67917 9.39585 5 11.05 5 13C5 14.95 5.67917 16.6042 7.0375 17.9625C8.39583 19.3208 10.05 20 12 20C13.7667 20 15.3083 19.425 16.625 18.275C17.9417 17.125 18.7167 15.675 18.95 13.925C18.9833 13.6583 19.1 13.4375 19.3 13.2625C19.5 13.0875 19.7333 13 20 13C20.2667 13 20.5 13.0833 20.7 13.25C20.9 13.4167 20.9833 13.625 20.95 13.875C20.7167 16.1917 19.75 18.125 18.05 19.675C16.35 21.225 14.3333 22 12 22Z" fill="black"/>
</svg>
