<svg width="24" height="24" viewBox="0 0 24 24" fill="none" xmlns="http://www.w3.org/2000/svg">
<path d="M6.7 21C6.21667 21 5.78767 20.8417 5.41301 20.525C5.03767 20.2083 4.80834 19.8083 4.72501 19.325L3.20001 10.175C3.15001 9.875 3.22101 9.60433 3.41301 9.363C3.60434 9.121 3.85834 9 4.17501 9H19.825C20.1417 9 20.3957 9.121 20.587 9.363C20.779 9.60433 20.85 9.875 20.8 10.175L19.275 19.325C19.1917 19.8083 18.9627 20.2083 18.588 20.525C18.2127 20.8417 17.7833 21 17.3 21H6.7ZM10 15H14C14.2833 15 14.521 14.904 14.713 14.712C14.9043 14.5207 15 14.2833 15 14C15 13.7167 14.9043 13.479 14.713 13.287C14.521 13.0957 14.2833 13 14 13H10C9.71667 13 9.47934 13.0957 9.28801 13.287C9.09601 13.479 9.00001 13.7167 9.00001 14C9.00001 14.2833 9.09601 14.5207 9.28801 14.712C9.47934 14.904 9.71667 15 10 15ZM6.00001 8C5.71667 8 5.47901 7.90433 5.28701 7.713C5.09567 7.521 5.00001 7.28333 5.00001 7C5.00001 6.71667 5.09567 6.479 5.28701 6.287C5.47901 6.09567 5.71667 6 6.00001 6H18C18.2833 6 18.5207 6.09567 18.712 6.287C18.904 6.479 19 6.71667 19 7C19 7.28333 18.904 7.521 18.712 7.713C18.5207 7.90433 18.2833 8 18 8H6.00001ZM8.00001 5C7.71667 5 7.47901 4.904 7.28701 4.712C7.09567 4.52067 7.00001 4.28333 7.00001 4C7.00001 3.71667 7.09567 3.479 7.28701 3.287C7.47901 3.09567 7.71667 3 8.00001 3H16C16.2833 3 16.5207 3.09567 16.712 3.287C16.904 3.479 17 3.71667 17 4C17 4.28333 16.904 4.52067 16.712 4.712C16.5207 4.904 16.2833 5 16 5H8.00001Z" fill="black"/>
</svg>
