<svg width="24" height="24" viewBox="0 0 24 24" fill="none" xmlns="http://www.w3.org/2000/svg">
<path d="M7.44999 11.9999C7.08333 13.2499 6.55833 14.3041 5.87499 15.1624C5.19166 16.0207 4.32499 16.7332 3.27499 17.2999C3.09166 17.3999 2.89999 17.4374 2.69999 17.4124C2.49999 17.3874 2.33333 17.2999 2.19999 17.1499C2.08333 17.0332 2.04583 16.8999 2.08749 16.7499C2.12916 16.5999 2.23333 16.4832 2.39999 16.3999C3.46666 15.8499 4.33333 15.1541 4.99999 14.3124C5.66666 13.4707 6.14999 12.3749 6.44999 11.0249H2.67499C2.50833 11.0249 2.37083 10.9666 2.26249 10.8499C2.15416 10.7332 2.09999 10.5916 2.09999 10.4249C2.09999 10.2582 2.15833 10.1207 2.27499 10.0124C2.39166 9.90407 2.53333 9.8499 2.69999 9.8499H6.64999C6.69999 9.43324 6.74166 8.9999 6.77499 8.5499C6.80833 8.0999 6.83333 7.6249 6.84999 7.1249C6.84999 6.94157 6.90833 6.78324 7.02499 6.6499C7.14166 6.51657 7.29166 6.4499 7.47499 6.4499C7.65833 6.4499 7.80833 6.51657 7.92499 6.6499C8.04166 6.78324 8.09999 6.94157 8.09999 7.1249C8.08333 7.6249 8.06249 8.0999 8.03749 8.5499C8.01249 8.9999 7.96666 9.43324 7.89999 9.8499H12.25C12.4167 9.8499 12.5542 9.90407 12.6625 10.0124C12.7708 10.1207 12.825 10.2582 12.825 10.4249C12.825 10.5916 12.7708 10.7332 12.6625 10.8499C12.5542 10.9666 12.4167 11.0249 12.25 11.0249H8.34999C8.74999 12.2249 9.29166 13.2749 9.97499 14.1749C10.6583 15.0749 11.4583 15.7666 12.375 16.2499C12.5417 16.3332 12.6583 16.4624 12.725 16.6374C12.7917 16.8124 12.7667 16.9666 12.65 17.0999C12.5167 17.2666 12.3458 17.3666 12.1375 17.3999C11.9292 17.4332 11.7333 17.3916 11.55 17.2749C10.65 16.7582 9.85416 16.0541 9.16249 15.1624C8.47083 14.2707 7.89999 13.2166 7.44999 11.9999ZM17.55 15.6499C18.0167 15.6499 18.4708 15.5416 18.9125 15.3249C19.3542 15.1082 19.7583 14.7999 20.125 14.3999V11.7499C19.7417 11.7999 19.3875 11.8582 19.0625 11.9249C18.7375 11.9916 18.4333 12.0666 18.15 12.1499C17.4 12.3832 16.8375 12.6749 16.4625 13.0249C16.0875 13.3749 15.9 13.7832 15.9 14.2499C15.9 14.6832 16.05 15.0249 16.35 15.2749C16.65 15.5249 17.05 15.6499 17.55 15.6499ZM16.975 17.3499C16.025 17.3499 15.275 17.0791 14.725 16.5374C14.175 15.9957 13.9 15.2582 13.9 14.3249C13.9 13.4582 14.175 12.7499 14.725 12.1999C15.275 11.6499 16.1583 11.2082 17.375 10.8749C17.7583 10.7749 18.1792 10.6832 18.6375 10.5999C19.0958 10.5166 19.5917 10.4416 20.125 10.3749C20.0917 9.59157 19.9083 9.02074 19.575 8.6624C19.2417 8.30407 18.725 8.1249 18.025 8.1249C17.675 8.1249 17.3333 8.1749 17 8.2749C16.6667 8.3749 16.275 8.54157 15.825 8.7749C15.625 8.89157 15.4167 8.9249 15.2 8.8749C14.9833 8.8249 14.8167 8.6999 14.7 8.4999C14.5833 8.2999 14.5583 8.0874 14.625 7.8624C14.6917 7.6374 14.825 7.46657 15.025 7.3499C15.5417 7.06657 16.0958 6.8374 16.6875 6.6624C17.2792 6.4874 17.8833 6.3999 18.5 6.3999C19.6833 6.3999 20.5833 6.76657 21.2 7.4999C21.8167 8.23324 22.125 9.2999 22.125 10.6999V16.2999C22.125 16.5332 22.0458 16.7291 21.8875 16.8874C21.7292 17.0457 21.5333 17.1249 21.3 17.1249H21.175C20.9583 17.1249 20.775 17.0541 20.625 16.9124C20.475 16.7707 20.3833 16.5999 20.35 16.3999L20.3 15.9999C19.8333 16.4166 19.3208 16.7457 18.7625 16.9874C18.2042 17.2291 17.6083 17.3499 16.975 17.3499Z" fill="black"/>
</svg>
