<?xml version="1.0" encoding="UTF-8"?>
<svg xmlns="http://www.w3.org/2000/svg" xmlns:xlink="http://www.w3.org/1999/xlink" width="160px" height="40px" viewBox="0 0 160 40" version="1.1">
<g id="surface1">
<path style=" stroke:none;fill-rule:nonzero;fill:rgb(49.411765%,61.56863%,92.941177%);fill-opacity:1;" d="M 95.195312 0.183594 C 84.933594 1.265625 74.511719 4.445312 63.179688 9.90625 C 57.742188 12.53125 54.550781 13.855469 52.464844 14.351562 C 51.660156 14.535156 50.695312 14.78125 50.320312 14.875 C 49.945312 15 44.71875 15.09375 38.664062 15.152344 C 30.09375 15.214844 27.117188 15.339844 25.136719 15.710938 C 21.0625 16.511719 17.042969 17.960938 12.625 20.277344 C 11.714844 20.769531 10.507812 21.359375 9.945312 21.636719 C 7.988281 22.59375 1.855469 26.820312 0.996094 27.839844 C 0.378906 28.550781 0.113281 29.226562 0.03125 30.214844 C -0.128906 31.914062 0.328125 34.320312 1.023438 35.371094 L 1.53125 36.140625 L 1.15625 34.90625 C 0.941406 34.226562 0.78125 32.714844 0.753906 31.574219 C 0.753906 28.886719 0.96875 28.609375 5.550781 25.988281 C 11.6875 22.4375 17.769531 19.8125 22.671875 18.640625 C 25.402344 17.992188 26.128906 17.960938 38.53125 17.929688 C 50.1875 17.929688 51.710938 17.871094 53.265625 17.375 C 56.804688 16.265625 59.402344 15.152344 64.144531 12.808594 C 72.957031 8.457031 82.65625 5 90.398438 3.457031 C 102.722656 0.988281 109.957031 1.632812 122.871094 6.417969 C 125.710938 7.4375 126.40625 7.4375 124.074219 6.355469 C 116.46875 2.871094 113.199219 1.726562 108.617188 0.800781 C 104.972656 0.0585938 98.839844 -0.21875 95.195312 0.183594 Z M 95.195312 0.183594 "/>
<path style=" stroke:none;fill-rule:nonzero;fill:rgb(49.411765%,61.56863%,92.941177%);fill-opacity:1;" d="M 125.871094 10.523438 C 122.898438 10.988281 118.824219 11.972656 111.644531 13.917969 C 103.554688 16.140625 98.972656 17.097656 93.988281 17.621094 C 93.613281 17.652344 92.730469 17.777344 91.980469 17.902344 C 88.308594 18.457031 76.734375 19.320312 72.769531 19.320312 C 70.28125 19.320312 68.269531 19.445312 68.269531 19.597656 C 68.269531 19.875 79.523438 20.371094 80.890625 20.121094 C 81.398438 20.03125 83.621094 19.875 85.816406 19.78125 C 89.757812 19.628906 95.488281 19.195312 98.679688 18.855469 C 101.222656 18.578125 106.527344 17.5625 112.207031 16.234375 C 124.316406 13.488281 125.121094 13.363281 131.097656 13.363281 C 137.070312 13.394531 140.367188 13.886719 147.386719 15.894531 C 153.359375 17.5625 154.511719 17.777344 156.707031 17.5 L 158.183594 17.28125 L 158.183594 20.769531 C 158.15625 22.683594 158.261719 24.351562 158.421875 24.535156 C 158.609375 24.753906 158.691406 24.105469 158.71875 22.621094 C 158.746094 21.078125 158.984375 19.722656 159.496094 18.148438 C 160.324219 15.492188 160.164062 14.8125 158.769531 15.371094 C 157.191406 16.019531 153.894531 15.460938 149.6875 13.824219 C 145.160156 12.066406 140.902344 10.832031 137.660156 10.371094 C 134.660156 9.96875 129.03125 10.03125 125.871094 10.523438 Z M 125.871094 10.523438 "/>
<path style=" stroke:none;fill-rule:nonzero;fill:rgb(49.411765%,61.56863%,92.941177%);fill-opacity:1;" d="M 71.082031 23.917969 C 68.5625 25.214844 67.277344 28.394531 67.546875 32.652344 C 67.734375 35.894531 68.699219 37.960938 70.574219 39.074219 C 71.671875 39.722656 72.234375 39.84375 74.03125 39.8125 C 75.207031 39.8125 76.496094 39.628906 76.921875 39.445312 C 77.566406 39.136719 77.648438 38.917969 77.648438 37.683594 C 77.648438 36.417969 77.59375 36.265625 77.109375 36.449219 C 75.957031 36.882812 73.976562 37.097656 73.09375 36.882812 C 71.832031 36.574219 71.054688 35.429688 70.679688 33.363281 C 70.441406 32.097656 70.441406 31.234375 70.679688 29.96875 C 71.324219 26.328125 73.359375 25.308594 76.871094 26.882812 C 77.433594 27.128906 78.371094 24.597656 77.835938 24.195312 C 76.496094 23.207031 72.742188 23.054688 71.082031 23.917969 Z M 71.082031 23.917969 "/>
<path style=" stroke:none;fill-rule:nonzero;fill:rgb(49.411765%,61.56863%,92.941177%);fill-opacity:1;" d="M 83.539062 24.476562 C 83.351562 25.121094 82.253906 28.734375 81.101562 32.53125 C 79.925781 36.296875 78.988281 39.476562 78.988281 39.535156 C 78.988281 39.628906 79.710938 39.691406 80.566406 39.691406 L 82.175781 39.691406 L 82.628906 37.839844 L 83.085938 35.988281 L 88.308594 35.988281 L 88.820312 37.746094 L 89.355469 39.535156 L 90.855469 39.628906 C 91.980469 39.691406 92.382812 39.628906 92.382812 39.320312 C 92.355469 39.105469 91.285156 35.433594 89.996094 31.203125 L 87.613281 23.488281 L 83.863281 23.300781 Z M 87.558594 32.808594 C 87.558594 32.871094 86.78125 32.902344 85.816406 32.902344 C 84.851562 32.902344 84.078125 32.777344 84.078125 32.621094 C 84.078125 32.34375 85.253906 27.746094 85.605469 26.726562 C 85.710938 26.386719 87.503906 31.976562 87.558594 32.808594 Z M 87.558594 32.808594 "/>
<path style=" stroke:none;fill-rule:nonzero;fill:rgb(49.411765%,61.56863%,92.941177%);fill-opacity:1;" d="M 94.472656 23.519531 C 94.335938 23.640625 94.257812 27.34375 94.257812 31.726562 L 94.257812 39.691406 L 97.472656 39.691406 L 97.472656 33.519531 L 98.222656 33.519531 C 98.8125 33.519531 99.105469 33.796875 99.617188 34.753906 C 99.992188 35.433594 100.742188 36.820312 101.304688 37.839844 L 102.296875 39.691406 L 103.929688 39.691406 C 104.8125 39.691406 105.507812 39.597656 105.457031 39.445312 C 105.429688 39.320312 104.519531 37.746094 103.445312 35.957031 L 101.542969 32.683594 L 102.484375 31.820312 C 104.921875 29.597656 104.546875 25.371094 101.785156 24.011719 C 100.742188 23.519531 94.792969 23.085938 94.472656 23.519531 Z M 100.367188 26.820312 C 101.035156 27.4375 101.222656 28.179688 100.929688 29.136719 C 100.632812 30.152344 99.617188 30.742188 98.25 30.742188 L 97.472656 30.742188 L 97.472656 26.078125 L 98.757812 26.296875 C 99.453125 26.386719 100.179688 26.636719 100.367188 26.820312 Z M 100.367188 26.820312 "/>
<path style=" stroke:none;fill-rule:nonzero;fill:rgb(49.411765%,61.56863%,92.941177%);fill-opacity:1;" d="M 24.574219 27.3125 C 22.429688 28.117188 21.277344 30.308594 21.277344 33.519531 C 21.277344 37.191406 22.699219 39.167969 25.726562 39.753906 C 27.039062 40 27.734375 39.96875 28.886719 39.660156 L 30.359375 39.226562 L 30.441406 37.871094 C 30.519531 36.695312 30.46875 36.542969 30.066406 36.726562 C 28.914062 37.222656 27.066406 37.5625 26.289062 37.375 C 25.324219 37.191406 24.332031 35.925781 24.332031 34.9375 C 24.332031 34.320312 24.464844 34.289062 27.679688 34.289062 C 29.503906 34.257812 31.082031 34.167969 31.164062 34.074219 C 31.246094 33.980469 31.191406 33.023438 31.058594 31.945312 C 30.601562 28.765625 29.367188 27.375 26.851562 27.160156 C 25.992188 27.097656 24.949219 27.160156 24.574219 27.3125 Z M 27.816406 30.183594 C 28.40625 30.925781 28.539062 31.945312 28.027344 32.003906 C 27.839844 32.035156 26.957031 32.035156 26.074219 32.066406 C 24.734375 32.066406 24.4375 31.976562 24.386719 31.542969 C 24.332031 31.234375 24.546875 30.648438 24.894531 30.246094 C 25.671875 29.289062 27.039062 29.257812 27.816406 30.183594 Z M 27.816406 30.183594 "/>
<path style=" stroke:none;fill-rule:nonzero;fill:rgb(49.411765%,61.56863%,92.941177%);fill-opacity:1;" d="M 50.988281 27.59375 C 50.5625 27.929688 50.023438 28.394531 49.8125 28.671875 C 49.355469 29.320312 48.980469 29.074219 48.980469 28.085938 C 48.980469 27.40625 48.875 27.34375 47.773438 27.34375 L 46.570312 27.34375 L 46.570312 39.691406 L 49.515625 39.691406 L 49.515625 36.140625 C 49.515625 34.195312 49.648438 32.285156 49.8125 31.882812 C 50.160156 30.957031 51.015625 30.402344 52.382812 30.152344 C 53.375 29.96875 53.402344 29.9375 53.480469 28.488281 L 53.5625 27.035156 L 52.675781 27.035156 C 52.195312 27.035156 51.445312 27.285156 50.988281 27.59375 Z M 50.988281 27.59375 "/>
<path style=" stroke:none;fill-rule:nonzero;fill:rgb(49.411765%,61.56863%,92.941177%);fill-opacity:1;" d="M 58.332031 27.34375 C 55.730469 28.238281 54.363281 31.667969 55.140625 35.371094 C 55.945312 39.289062 59.480469 41.019531 62.859375 39.167969 C 65.726562 37.59375 66.234375 30.925781 63.6875 28.457031 C 62.402344 27.191406 60.097656 26.726562 58.332031 27.34375 Z M 61.839844 30.800781 C 62.910156 32.839844 62.347656 36.667969 60.902344 37.097656 C 59.027344 37.652344 57.957031 36.234375 57.980469 33.300781 C 58.007812 30.832031 58.679688 29.8125 60.285156 29.8125 C 61.144531 29.8125 61.382812 29.96875 61.839844 30.800781 Z M 61.839844 30.800781 "/>
<path style=" stroke:none;fill-rule:nonzero;fill:rgb(49.411765%,61.56863%,92.941177%);fill-opacity:1;" d="M 121.613281 27.4375 C 120.351562 27.960938 119.628906 29.136719 119.65625 30.742188 C 119.683594 32.40625 120.246094 33.085938 122.65625 34.445312 C 124.664062 35.554688 125.226562 36.417969 124.371094 37.128906 C 123.753906 37.65625 122.789062 37.65625 121.15625 37.066406 C 120.433594 36.820312 119.816406 36.605469 119.789062 36.605469 C 119.734375 36.605469 119.710938 37.222656 119.710938 37.964844 C 119.710938 39.476562 119.761719 39.507812 122.386719 39.875 C 124.15625 40.09375 125.84375 39.628906 126.863281 38.640625 C 127.503906 37.992188 127.613281 37.65625 127.613281 36.203125 C 127.613281 34.074219 127.183594 33.457031 124.640625 32.128906 C 122.550781 31.019531 122.175781 30.617188 122.65625 29.96875 C 123.085938 29.382812 124.15625 29.382812 125.601562 29.96875 C 126.246094 30.214844 126.78125 30.402344 126.808594 30.371094 C 127.101562 29.816406 127.503906 28.242188 127.371094 28.023438 C 126.914062 27.160156 123.21875 26.789062 121.613281 27.4375 Z M 121.613281 27.4375 "/>
<path style=" stroke:none;fill-rule:nonzero;fill:rgb(49.411765%,61.56863%,92.941177%);fill-opacity:1;" d="M 131.710938 27.53125 C 130.988281 27.777344 130.425781 28.054688 130.425781 28.117188 C 130.425781 28.179688 130.613281 28.734375 130.855469 29.289062 L 131.285156 30.339844 L 132.515625 29.9375 C 133.1875 29.691406 134.042969 29.503906 134.445312 29.503906 C 135.300781 29.503906 136.050781 30.371094 136.050781 31.296875 C 136.050781 31.882812 135.890625 31.976562 134.925781 32.003906 C 131.175781 32.097656 129.355469 33.394531 129.355469 35.988281 C 129.355469 38.148438 130.855469 40 132.621094 40 C 133.695312 40 135.140625 39.414062 135.648438 38.765625 C 136.292969 37.960938 136.507812 37.992188 136.695312 38.917969 C 136.828125 39.566406 137.015625 39.691406 137.925781 39.691406 L 139 39.691406 L 139 35.0625 C 139 31.789062 138.890625 30.09375 138.625 29.382812 C 137.875 27.3125 134.710938 26.449219 131.710938 27.53125 Z M 136.050781 34.84375 C 136.050781 36.234375 135.410156 37.160156 134.285156 37.40625 C 133.585938 37.5625 133.210938 37.46875 132.835938 37.066406 C 131.472656 35.648438 132.835938 33.980469 135.460938 33.859375 C 135.945312 33.828125 136.050781 33.980469 136.050781 34.84375 Z M 136.050781 34.84375 "/>
<path style=" stroke:none;fill-rule:nonzero;fill:rgb(49.411765%,61.56863%,92.941177%);fill-opacity:1;" d="M 33.496094 32.191406 C 33.601562 37.871094 33.84375 38.703125 35.585938 39.507812 C 36.175781 39.785156 36.976562 40 37.351562 40 C 38.128906 40 39.816406 39.226562 40.433594 38.582031 C 40.835938 38.179688 40.890625 38.179688 41.050781 38.917969 C 41.210938 39.597656 41.371094 39.691406 42.417969 39.691406 L 43.621094 39.691406 L 43.621094 34.195312 C 43.621094 31.203125 43.542969 28.425781 43.460938 28.023438 C 43.300781 27.4375 43.113281 27.34375 41.878906 27.34375 L 40.460938 27.34375 L 40.433594 31.417969 C 40.40625 34.476562 40.300781 35.679688 40.003906 36.203125 C 39.226562 37.5625 37.246094 37.53125 36.710938 36.140625 C 36.523438 35.648438 36.386719 33.734375 36.386719 31.359375 L 36.386719 27.34375 L 33.386719 27.34375 Z M 33.496094 32.191406 "/>
<path style=" stroke:none;fill-rule:nonzero;fill:rgb(49.411765%,61.56863%,92.941177%);fill-opacity:1;" d="M 107.117188 31.636719 C 107.117188 36.757812 107.25 37.59375 108.160156 38.734375 C 109.394531 40.246094 112.527344 40.246094 113.839844 38.734375 C 114.484375 37.992188 114.539062 37.992188 114.726562 38.917969 C 114.859375 39.566406 115.046875 39.691406 115.957031 39.691406 L 117.03125 39.691406 L 117.03125 27.34375 L 114.164062 27.34375 L 114.136719 31.386719 C 114.109375 34.476562 114.003906 35.648438 113.679688 36.171875 C 112.902344 37.5625 110.789062 37.53125 110.332031 36.109375 C 110.171875 35.679688 110.0625 33.519531 110.0625 31.328125 L 110.0625 27.34375 L 107.117188 27.34375 Z M 107.117188 31.636719 "/>
</g>
</svg>
