<svg width="192" height="48" viewBox="0 0 192 48" fill="none" xmlns="http://www.w3.org/2000/svg">
<path d="M114.234 0.220768C101.921 1.51711 89.4147 5.33204 75.8154 11.8878C69.289 15.0361 65.4632 16.6287 62.9556 17.2213C61.9911 17.4435 60.8337 17.7398 60.3836 17.851C59.9335 17.9991 53.6643 18.1102 46.3985 18.1843C36.1107 18.2584 32.542 18.4065 30.163 18.851C25.2762 19.814 20.4538 21.5548 15.1491 24.3327C14.056 24.9253 12.6093 25.629 11.9342 25.9623C9.58724 27.1105 2.22498 32.1848 1.19619 33.407C0.456749 34.2589 0.135253 35.0737 0.0388043 36.259C-0.154093 38.2961 0.39245 41.185 1.22834 42.4443L1.83918 43.3703L1.38909 41.8888C1.13189 41.0739 0.938993 39.2591 0.906843 37.8886C0.906843 34.6663 1.16404 34.333 6.66162 31.1847C14.0239 26.9253 21.3218 23.7771 27.2052 22.3696C30.4845 21.5918 31.3525 21.5548 46.2378 21.5177C60.2229 21.5177 62.0554 21.4437 63.9201 20.8511C68.1638 19.5177 71.2823 18.1843 76.9728 15.3694C87.55 10.147 99.1882 5.99873 108.479 4.14682C123.268 1.18376 131.949 1.96156 147.445 7.70249C150.853 8.92475 151.688 8.92475 148.891 7.62841C139.761 3.44309 135.839 2.07268 130.341 0.961533C125.969 0.0726128 118.607 -0.260731 114.234 0.220768Z" fill="#7E9DED"/>
<path d="M151.046 12.6283C147.477 13.1839 142.59 14.3691 133.974 16.7025C124.265 19.3693 118.768 20.5175 112.788 21.1471C112.338 21.1842 111.277 21.3323 110.376 21.4805C105.972 22.1472 92.0833 23.1842 87.3252 23.1842C84.3353 23.1842 81.9241 23.3324 81.9241 23.5176C81.9241 23.8509 95.4269 24.4435 97.0665 24.1472C97.6774 24.0361 100.346 23.8509 102.982 23.7398C107.708 23.5546 114.588 23.0361 118.414 22.6287C121.468 22.2953 127.834 21.073 134.649 19.4804C149.181 16.184 150.146 16.0358 157.315 16.0358C164.484 16.0729 168.439 16.6655 176.862 19.073C184.031 21.073 185.414 21.3323 188.05 20.999L189.818 20.7397V24.925C189.786 27.2214 189.915 29.2215 190.107 29.4437C190.332 29.703 190.429 28.9252 190.461 27.1473C190.493 25.2954 190.783 23.6657 191.393 21.7768C192.39 18.5915 192.197 17.7766 190.525 18.4433C188.629 19.2211 184.674 18.5544 179.627 16.5914C174.193 14.4802 169.082 12.9987 165.192 12.4431C161.591 11.9616 154.839 12.0357 151.046 12.6283Z" fill="#7E9DED"/>
<path d="M85.2992 28.7025C82.2772 30.2582 80.734 34.0731 81.0555 39.1844C81.2805 43.0734 82.4379 45.5549 84.6884 46.8883C86.0065 47.6661 86.6817 47.8143 88.8357 47.7772C90.2503 47.7772 91.7935 47.555 92.3079 47.3328C93.0794 46.9624 93.1759 46.7031 93.1759 45.2216C93.1759 43.703 93.1116 43.5178 92.5329 43.7401C91.1505 44.2586 88.7714 44.5179 87.7105 44.2586C86.1994 43.8882 85.2671 42.5178 84.817 40.0362C84.5277 38.5177 84.5277 37.4806 84.817 35.962C85.5886 31.5915 88.032 30.3693 92.2436 32.2582C92.9187 32.5545 94.0439 29.5174 93.4009 29.0359C91.7935 27.8507 87.2925 27.6655 85.2992 28.7025Z" fill="#7E9DED"/>
<path d="M100.249 29.3696C100.024 30.1474 98.7059 34.4808 97.3235 39.0365C95.9089 43.5552 94.7837 47.3701 94.7837 47.4442C94.7837 47.5553 95.6517 47.6294 96.6805 47.6294H98.6095L99.156 45.4071L99.7026 43.1848H102.821H105.972L106.583 45.296L107.226 47.4442L109.026 47.5553C110.376 47.6294 110.858 47.5553 110.858 47.1849C110.826 46.9257 109.54 42.5181 107.997 37.4439L105.136 28.1843L102.885 28.0732L100.635 27.9621L100.249 29.3696ZM105.072 39.3699C105.072 39.4439 104.139 39.481 102.982 39.481C101.824 39.481 100.892 39.3328 100.892 39.1476C100.892 38.8143 102.307 33.2956 102.725 32.0733C102.853 31.6659 105.007 38.3698 105.072 39.3699Z" fill="#7E9DED"/>
<path d="M113.366 28.2214C113.205 28.3695 113.109 32.8141 113.109 38.0735V47.6294H115.038H116.967V43.9256V40.2217H117.867C118.574 40.2217 118.928 40.5551 119.539 41.7033C119.989 42.5181 120.889 44.1848 121.564 45.4071L122.754 47.6294H124.715C125.776 47.6294 126.611 47.5183 126.547 47.3331C126.515 47.1849 125.422 45.296 124.136 43.1478L121.853 39.2217L122.979 38.1846C125.904 35.5179 125.454 30.4437 122.143 28.814C120.889 28.2214 113.752 27.7028 113.366 28.2214ZM120.439 32.1845C121.242 32.9252 121.468 33.8141 121.114 34.9623C120.76 36.1846 119.539 36.8883 117.899 36.8883H116.967V34.0734V31.2955L118.51 31.5548C119.346 31.6659 120.214 31.9622 120.439 32.1845Z" fill="#7E9DED"/>
<path d="M29.4878 32.7769C26.9159 33.7399 25.5334 36.3696 25.5334 40.2216C25.5334 44.6292 27.2374 46.9996 30.8703 47.7033C32.4456 47.9996 33.2815 47.9626 34.6639 47.5922L36.4322 47.0737L36.5286 45.444C36.6251 44.0366 36.5608 43.8514 36.0785 44.0736C34.6961 44.6662 32.4778 45.0736 31.5454 44.8514C30.388 44.6292 29.1985 43.1106 29.1985 41.9254C29.1985 41.1846 29.3592 41.1476 33.2172 41.1476C35.4034 41.1105 37.3002 40.9994 37.3966 40.8883C37.4931 40.7772 37.4288 39.629 37.268 38.3327C36.7215 34.5177 35.2426 32.851 32.2206 32.5917C31.1918 32.5177 29.9379 32.5917 29.4878 32.7769ZM33.3779 36.2215C34.0852 37.1104 34.246 38.3327 33.6351 38.4067C33.4101 38.4438 32.3492 38.4438 31.2882 38.4808C29.6807 38.4808 29.3271 38.3697 29.2628 37.8512C29.1985 37.4808 29.4557 36.7771 29.8736 36.2956C30.806 35.1474 32.4456 35.1103 33.3779 36.2215Z" fill="#7E9DED"/>
<path d="M61.1875 33.1104C60.6731 33.5178 60.0301 34.0734 59.7729 34.4067C59.2264 35.1846 58.7763 34.8882 58.7763 33.703C58.7763 32.8882 58.6477 32.8141 57.3295 32.8141H55.8828V40.2217V47.6294H57.651H59.4193V43.37C59.4193 41.0366 59.58 38.7402 59.7729 38.2587C60.1909 37.1476 61.2196 36.4809 62.8593 36.1846C64.0488 35.9624 64.081 35.9253 64.1774 34.1845L64.2739 32.4437H63.2129C62.6342 32.4437 61.734 32.74 61.1875 33.1104Z" fill="#7E9DED"/>
<path d="M69.9964 32.8141C66.8778 33.8882 65.2382 37.9994 66.1706 42.444C67.135 47.1479 71.3788 49.222 75.4296 46.9997C78.8696 45.1108 79.4805 37.1105 76.4263 34.1475C74.8831 32.6289 72.1182 32.0733 69.9964 32.8141ZM74.2079 36.9624C75.4939 39.4069 74.8188 43.9996 73.0827 44.5182C70.8322 45.1849 69.5463 43.4811 69.5784 39.9625C69.6106 36.9994 70.4143 35.7771 72.3433 35.7771C73.3721 35.7771 73.6614 35.9623 74.2079 36.9624Z" fill="#7E9DED"/>
<path d="M145.934 32.9255C144.423 33.5552 143.555 34.9626 143.587 36.8886C143.619 38.8887 144.294 39.7035 147.187 41.3332C149.599 42.6666 150.274 43.7036 149.245 44.5555C148.506 45.1852 147.348 45.1852 145.387 44.4814C144.519 44.1851 143.78 43.9259 143.747 43.9259C143.683 43.9259 143.651 44.6666 143.651 45.5555C143.651 47.3704 143.715 47.4075 146.866 47.8519C148.988 48.1112 151.013 47.5556 152.235 46.3704C153.007 45.5926 153.135 45.1852 153.135 43.4444C153.135 40.8887 152.621 40.148 149.567 38.5553C147.059 37.2219 146.609 36.7404 147.187 35.9626C147.702 35.2589 148.988 35.2589 150.724 35.9626C151.495 36.2589 152.138 36.4812 152.171 36.4441C152.524 35.7775 153.007 33.8885 152.846 33.6292C152.299 32.5922 147.863 32.1477 145.934 32.9255Z" fill="#7E9DED"/>
<path d="M158.054 33.0364C157.186 33.3327 156.511 33.6661 156.511 33.7401C156.511 33.8142 156.736 34.4809 157.026 35.1476L157.54 36.4069L159.019 35.9254C159.823 35.6291 160.851 35.4069 161.334 35.4069C162.362 35.4069 163.263 36.4439 163.263 37.5551C163.263 38.2588 163.07 38.3699 161.912 38.4069C157.411 38.5181 155.225 40.0737 155.225 43.1849C155.225 45.7776 157.026 47.9998 159.147 47.9998C160.433 47.9998 162.17 47.2961 162.78 46.5183C163.552 45.5553 163.809 45.5924 164.034 46.7035C164.195 47.4813 164.42 47.6295 165.513 47.6295H166.799V42.0737C166.799 38.1477 166.67 36.1106 166.349 35.2587C165.449 32.7771 161.655 31.7401 158.054 33.0364ZM163.263 41.8145C163.263 43.4812 162.491 44.5923 161.141 44.8886C160.305 45.0738 159.855 44.9627 159.405 44.4812C157.765 42.7775 159.405 40.7774 162.555 40.6292C163.134 40.5922 163.263 40.7774 163.263 41.8145Z" fill="#7E9DED"/>
<path d="M40.1937 38.6292C40.3223 45.4442 40.6116 46.4442 42.7013 47.4072C43.4086 47.7406 44.3731 47.9998 44.8232 47.9998C45.7555 47.9998 47.781 47.0739 48.5204 46.2961C49.0027 45.8146 49.067 45.8146 49.2598 46.7035C49.4527 47.5184 49.6456 47.6295 50.8995 47.6295H52.3462V41.0367C52.3462 37.444 52.2498 34.1105 52.1533 33.629C51.9604 32.9253 51.7354 32.8142 50.2565 32.8142H48.5526L48.5204 37.7032C48.4883 41.37 48.3597 42.8145 48.006 43.4441C47.0737 45.0738 44.6946 45.0368 44.0516 43.3701C43.8266 42.7775 43.6658 40.4811 43.6658 37.6291V32.8142H41.8654H40.0651L40.1937 38.6292Z" fill="#7E9DED"/>
<path d="M128.54 37.9623C128.54 44.1107 128.701 45.1107 129.794 46.4811C131.273 48.296 135.035 48.296 136.61 46.4811C137.381 45.5922 137.446 45.5922 137.671 46.7034C137.832 47.4812 138.057 47.6293 139.15 47.6293H140.436V40.2217V32.814H138.732H136.996L136.963 37.666C136.931 41.3699 136.803 42.7773 136.417 43.407C135.485 45.0737 132.945 45.0366 132.398 43.3329C132.205 42.8143 132.077 40.2217 132.077 37.592V32.814H130.309H128.54V37.9623Z" fill="#7E9DED"/>
</svg>
