<svg width="32" height="32" viewBox="0 0 32 32" fill="none" xmlns="http://www.w3.org/2000/svg">
<rect width="32" height="32" rx="8" fill="white"/>
<path d="M18.4105 9.07152C16.7493 9.49066 15.0622 10.7224 13.2278 12.8377C12.3475 13.8546 11.8309 14.3675 11.4932 14.5597C11.363 14.6308 11.2068 14.7261 11.1461 14.7625C11.0854 14.8109 10.2393 14.8472 9.25913 14.8699C7.87176 14.8941 7.38991 14.9425 7.0693 15.0863C6.40976 15.3965 5.75907 15.9578 5.04389 16.8551C4.89655 17.0458 4.70115 17.2743 4.61009 17.3817C4.29329 17.7524 3.3005 19.3896 3.16138 19.7846C3.06147 20.06 3.01847 20.3217 3.00519 20.7046C2.97926 21.3628 3.05325 22.2949 3.16581 22.7019L3.24801 23L3.18731 22.5218C3.15253 22.2586 3.1266 21.673 3.12217 21.2311C3.12217 20.1901 3.15695 20.0827 3.8987 19.0673C4.89212 17.6919 5.87669 16.6751 6.67029 16.2211C7.1123 15.9699 7.22992 15.9578 9.23763 15.9457C11.1246 15.9457 11.3712 15.923 11.6229 15.7309C12.1958 15.3011 12.6163 14.8699 13.384 13.962C14.8105 12.2764 16.3807 10.9372 17.634 10.3395C19.629 9.38323 20.8002 9.63289 22.8907 11.4865C23.3504 11.8814 23.463 11.8814 23.0855 11.4623C21.8543 10.1126 21.325 9.66921 20.5833 9.3106C19.9933 9.0231 19.0005 8.91567 18.4105 9.07152Z" fill="#7E9DED"/>
<path d="M23.5589 12.6506C23.0849 12.8193 22.4353 13.1764 21.2907 13.8822C20.0008 14.6887 19.2703 15.0359 18.4756 15.2258C18.4158 15.2372 18.2751 15.2825 18.1555 15.3279C17.5701 15.5292 15.7247 15.8424 15.0926 15.8424C14.6959 15.8424 14.3752 15.8877 14.3752 15.943C14.3752 16.0436 16.1694 16.2236 16.3874 16.1329C16.4684 16.1003 16.8227 16.0436 17.1727 16.0096C17.8011 15.9543 18.7148 15.797 19.2236 15.6737C19.629 15.5731 20.4748 15.2046 21.3803 14.7227C23.311 13.7263 23.4393 13.681 24.3922 13.681C25.3444 13.6923 25.8701 13.8709 26.9892 14.5994C27.9415 15.2046 28.1252 15.2825 28.4752 15.1819L28.7106 15.1025V16.3682C28.7063 17.0627 28.7231 17.6679 28.7486 17.7345C28.7785 17.8138 28.7916 17.5786 28.7959 17.04C28.8003 16.4802 28.8383 15.9884 28.9199 15.4172C29.0519 14.4534 29.0264 14.2068 28.804 14.4095C28.5524 14.6448 28.0268 14.4421 27.356 13.8482C26.6342 13.2104 25.9554 12.7626 25.4385 12.5953C24.9601 12.4494 24.0627 12.472 23.5589 12.6506Z" fill="#7E9DED"/>
<g opacity="0.66">
<path d="M15.1538 18.1787C14.6401 18.5541 14.3781 19.4744 14.433 20.7069C14.4713 21.6453 14.668 22.2434 15.0502 22.5657C15.274 22.7534 15.3887 22.7884 15.755 22.7794C15.9947 22.7794 16.2575 22.7262 16.3443 22.6731C16.4757 22.5838 16.4925 22.5205 16.4925 22.1632C16.4925 21.7968 16.4813 21.7527 16.3826 21.8059C16.1476 21.9314 15.7439 21.9936 15.5639 21.9314C15.3067 21.842 15.1482 21.5108 15.0717 20.9126C15.0232 20.5463 15.0232 20.2964 15.0717 19.9301C15.2031 18.8763 15.618 18.5812 16.334 19.0369C16.4487 19.1081 16.6398 18.3754 16.5307 18.2589C16.2575 17.9729 15.4922 17.9288 15.1538 18.1787Z" fill="#BD33A4"/>
<path d="M17.6932 18.3403C17.6549 18.5269 17.4312 19.5728 17.1962 20.6718C16.9565 21.7617 16.7654 22.6821 16.7654 22.6991C16.7654 22.7262 16.9127 22.7443 17.0871 22.7443H17.4152L17.5076 22.2084L17.6008 21.6724H18.6655L18.7699 22.1812L18.879 22.6991L19.1848 22.7262C19.4141 22.7443 19.4962 22.7262 19.4962 22.6369C19.4906 22.5747 19.2724 21.5119 19.0096 20.2874L18.5238 18.0543L17.7593 18L17.6932 18.3403ZM18.5126 20.7521C18.5126 20.7701 18.3542 20.7792 18.1575 20.7792C17.9607 20.7792 17.8031 20.743 17.8031 20.6978C17.8031 20.6175 18.0428 19.2867 18.1144 18.9916C18.136 18.8932 18.5015 20.5112 18.5126 20.7521Z" fill="#BD33A4"/>
<path d="M19.9222 18.0633C19.8943 18.0983 19.8784 19.1702 19.8784 20.4388V22.7443H20.5338V20.9578H20.6867C20.807 20.9578 20.8667 21.0381 20.971 21.3151C21.0475 21.5118 21.2004 21.9132 21.3151 22.2083L21.5173 22.7443H21.8502C22.0302 22.7443 22.172 22.7171 22.1616 22.673C22.156 22.6369 21.9705 22.1812 21.7515 21.6633L21.3636 20.7158L21.5556 20.466C22.0525 19.8226 21.9761 18.5992 21.413 18.2058C21.2004 18.0633 19.9875 17.9378 19.9222 18.0633ZM21.1239 19.0187C21.2601 19.1974 21.2983 19.4122 21.2386 19.6892C21.1781 19.9832 20.971 20.1539 20.6923 20.1539H20.5338V18.8039L20.7958 18.8672C20.9376 18.8932 21.0857 18.9656 21.1239 19.0187Z" fill="#BD33A4"/>
<path d="M5.67214 19.1614C5.23493 19.3943 5 20.0286 5 20.958C5 22.0209 5.28988 22.593 5.90707 22.7626C6.17465 22.8338 6.3164 22.8248 6.55133 22.7355L6.85156 22.61L6.86829 22.2176C6.88421 21.8773 6.87386 21.8332 6.79183 21.8863C6.55691 22.0299 6.18022 22.1283 6.02174 22.074C5.82504 22.0209 5.62276 21.6545 5.62276 21.3685C5.62276 21.1898 5.64984 21.1808 6.30525 21.1808C6.67716 21.1717 6.99889 21.1457 7.01561 21.1186C7.03234 21.0915 7.02119 20.8144 6.99411 20.5024C6.90094 19.582 6.64928 19.1795 6.13642 19.1173C5.96122 19.0992 5.74859 19.1173 5.67214 19.1614ZM6.33312 19.9924C6.45338 20.2073 6.48045 20.5024 6.37613 20.5193C6.3379 20.5284 6.15792 20.5284 5.97794 20.5374C5.70479 20.5374 5.64426 20.5114 5.63391 20.3859C5.62276 20.2966 5.66656 20.127 5.73744 20.0105C5.89592 19.7335 6.17465 19.7245 6.33312 19.9924Z" fill="#BD33A4"/>
<path d="M11.0572 19.2427C10.9704 19.34 10.8605 19.4745 10.8175 19.5548C10.7243 19.7425 10.6479 19.6713 10.6479 19.3852C10.6479 19.1885 10.6264 19.1704 10.4018 19.1704H10.1565V22.7444H10.757V21.7167C10.757 21.1536 10.7841 20.6007 10.8175 20.4842C10.8884 20.2163 11.0628 20.0557 11.3415 19.9833C11.5438 19.9302 11.5494 19.9211 11.5653 19.5017L11.582 19.0811H11.4013C11.3033 19.0811 11.1504 19.1534 11.0572 19.2427Z" fill="#BD33A4"/>
<path d="M12.5544 19.1702C12.024 19.4291 11.7453 20.4219 11.9037 21.4938C12.0678 22.6278 12.7885 23.1287 13.4774 22.5928C14.0619 22.1371 14.1654 20.2071 13.6462 19.4925C13.3842 19.1261 12.9143 18.9916 12.5544 19.1702ZM13.2695 20.1709C13.4877 20.7611 13.373 21.8691 13.0784 21.9935C12.6961 22.1541 12.4779 21.7436 12.4827 20.8945C12.4883 20.1799 12.6253 19.8848 12.9526 19.8848C13.1278 19.8848 13.1763 19.93 13.2695 20.1709Z" fill="#BD33A4"/>
<path d="M25.4554 19.1972C25.1982 19.3487 25.0508 19.6891 25.0564 20.1538C25.062 20.6354 25.1767 20.8322 25.668 21.2256C26.0774 21.5468 26.192 21.7966 26.0176 22.0024C25.8918 22.1551 25.6951 22.1551 25.3622 21.9843C25.2149 21.9131 25.0891 21.8509 25.0835 21.8509C25.0723 21.8509 25.0676 22.0296 25.0676 22.2444C25.0676 22.682 25.0779 22.691 25.6131 22.7973C25.9738 22.8606 26.3179 22.7261 26.5257 22.44C26.6563 22.2523 26.6786 22.1551 26.6786 21.7345C26.6786 21.1182 26.591 20.9396 26.0726 20.5552C25.6465 20.234 25.5701 20.1176 25.668 19.9299C25.7556 19.7603 25.9738 19.7603 26.2685 19.9299C26.3999 20.0011 26.509 20.0554 26.5146 20.0464C26.5743 19.8858 26.6563 19.4301 26.6292 19.3668C26.5361 19.1169 25.7827 19.0095 25.4554 19.1972Z" fill="#BD33A4"/>
<path d="M27.514 19.2245C27.3667 19.2958 27.252 19.376 27.252 19.3941C27.252 19.4122 27.2902 19.5728 27.3396 19.7333L27.4272 20.0375L27.678 19.921C27.815 19.8498 27.9894 19.7955 28.0714 19.7955C28.2458 19.7955 28.3987 20.0465 28.3987 20.3145C28.3987 20.4841 28.3661 20.5112 28.1694 20.5191C27.4049 20.5463 27.0338 20.9217 27.0338 21.6724C27.0338 22.2977 27.3396 22.8336 27.6995 22.8336C27.9185 22.8336 28.2132 22.664 28.3167 22.4763C28.4481 22.2434 28.4919 22.2525 28.5301 22.5204C28.5572 22.7081 28.5955 22.7443 28.781 22.7443H29V21.4045C29 20.457 28.9777 19.9662 28.9236 19.7605C28.7707 19.1612 28.1256 18.9113 27.514 19.2245ZM28.3987 21.3411C28.3987 21.7437 28.2681 22.0116 28.0388 22.0829C27.8962 22.1281 27.8198 22.101 27.7433 21.9845C27.4654 21.5741 27.7433 21.0913 28.2785 21.0562C28.3772 21.0472 28.3987 21.0913 28.3987 21.3411Z" fill="#BD33A4"/>
<path d="M7.49105 20.5731C7.51255 22.2171 7.56193 22.4579 7.91711 22.6908C8.03736 22.7711 8.20061 22.8333 8.27707 22.8333C8.43554 22.8333 8.77958 22.6094 8.9054 22.4229C8.98743 22.3064 8.99858 22.3064 9.03123 22.5201C9.06388 22.7168 9.09653 22.744 9.30996 22.744H9.55524V21.1531C9.55524 20.287 9.53931 19.4831 9.52259 19.3667C9.48994 19.1971 9.45171 19.1699 9.20006 19.1699H8.91098L8.9054 20.3492C8.89983 21.2345 8.87833 21.5828 8.8178 21.7343C8.65932 22.1278 8.25556 22.1187 8.14646 21.7162C8.10824 21.5737 8.08036 21.0197 8.08036 20.3323V19.1699H7.46875L7.49105 20.5731Z" fill="#BD33A4"/>
<path d="M22.5001 20.4125C22.5001 21.8948 22.5271 22.1368 22.7127 22.467C22.9643 22.9045 23.603 22.9045 23.8706 22.467C24.002 22.2521 24.0132 22.2521 24.0514 22.5201C24.0785 22.7078 24.1167 22.744 24.3022 22.744H24.5213V19.1699H23.9367L23.9311 20.3402C23.9256 21.2345 23.9041 21.5737 23.838 21.7252C23.6795 22.1278 23.2486 22.1187 23.1555 21.7072C23.1228 21.5828 23.1005 20.9575 23.1005 20.3232V19.1699H22.5001V20.4125Z" fill="#BD33A4"/>
</g>
</svg>
