<svg width="24" height="24" viewBox="0 0 24 24" fill="none" xmlns="http://www.w3.org/2000/svg">
<path d="M7.00001 20V8.97501C7.00001 8.42501 7.20001 7.95835 7.60001 7.57501C8.00001 7.19168 8.47501 7.00001 9.02501 7.00001H20C20.55 7.00001 21.0208 7.19585 21.4125 7.58751C21.8042 7.97918 22 8.45001 22 9.00001V16.175C22 16.4417 21.95 16.6958 21.85 16.9375C21.75 17.1792 21.6083 17.3917 21.425 17.575L17.575 21.425C17.3917 21.6083 17.1792 21.75 16.9375 21.85C16.6958 21.95 16.4417 22 16.175 22H9.00001C8.45001 22 7.97918 21.8042 7.58751 21.4125C7.19585 21.0208 7.00001 20.55 7.00001 20ZM2.02501 6.25001C1.92501 5.70001 2.03335 5.20418 2.35001 4.76251C2.66668 4.32085 3.10001 4.05001 3.65001 3.95001L14.5 2.02501C15.05 1.92501 15.5458 2.03335 15.9875 2.35001C16.4292 2.66668 16.7 3.10001 16.8 3.65001L17.05 5.00001H9.00001C7.90001 5.00001 6.95835 5.39168 6.17501 6.17501C5.39168 6.95835 5.00001 7.90001 5.00001 9.00001V18.55C4.73335 18.4 4.50418 18.2 4.31251 17.95C4.12085 17.7 4.00001 17.4167 3.95001 17.1L2.02501 6.25001ZM13.5 15.5V17.5C13.5 17.7833 13.5958 18.0208 13.7875 18.2125C13.9792 18.4042 14.2167 18.5 14.5 18.5C14.7833 18.5 15.0208 18.4042 15.2125 18.2125C15.4042 18.0208 15.5 17.7833 15.5 17.5V15.5H17.5C17.7833 15.5 18.0208 15.4042 18.2125 15.2125C18.4042 15.0208 18.5 14.7833 18.5 14.5C18.5 14.2167 18.4042 13.9792 18.2125 13.7875C18.0208 13.5958 17.7833 13.5 17.5 13.5H15.5V11.5C15.5 11.2167 15.4042 10.9792 15.2125 10.7875C15.0208 10.5958 14.7833 10.5 14.5 10.5C14.2167 10.5 13.9792 10.5958 13.7875 10.7875C13.5958 10.9792 13.5 11.2167 13.5 11.5V13.5H11.5C11.2167 13.5 10.9792 13.5958 10.7875 13.7875C10.5958 13.9792 10.5 14.2167 10.5 14.5C10.5 14.7833 10.5958 15.0208 10.7875 15.2125C10.9792 15.4042 11.2167 15.5 11.5 15.5H13.5Z" fill="black"/>
</svg>
