<svg width="24" height="24" viewBox="0 0 24 24" fill="none" xmlns="http://www.w3.org/2000/svg">
<path d="M12 22C11.45 22 10.9793 21.8043 10.588 21.413C10.196 21.021 10 20.55 10 20H14C14 20.55 13.8043 21.021 13.413 21.413C13.021 21.8043 12.55 22 12 22ZM20 13C19.7167 13 19.4793 12.904 19.288 12.712C19.096 12.5207 19 12.2833 19 12V10H17C16.7167 10 16.4793 9.904 16.288 9.712C16.096 9.52067 16 9.28333 16 9C16 8.71667 16.096 8.479 16.288 8.287C16.4793 8.09567 16.7167 8 17 8H19V6C19 5.71667 19.096 5.479 19.288 5.287C19.4793 5.09567 19.7167 5 20 5C20.2833 5 20.5207 5.09567 20.712 5.287C20.904 5.479 21 5.71667 21 6V8H23C23.2833 8 23.5207 8.09567 23.712 8.287C23.904 8.479 24 8.71667 24 9C24 9.28333 23.904 9.52067 23.712 9.712C23.5207 9.904 23.2833 10 23 10H21V12C21 12.2833 20.904 12.5207 20.712 12.712C20.5207 12.904 20.2833 13 20 13ZM5 19C4.71667 19 4.479 18.904 4.287 18.712C4.09567 18.5207 4 18.2833 4 18C4 17.7167 4.09567 17.4793 4.287 17.288C4.479 17.096 4.71667 17 5 17H6V10C6 8.58333 6.425 7.34567 7.275 6.287C8.125 5.229 9.2 4.53333 10.5 4.2V3.5C10.5 3.08333 10.646 2.72933 10.938 2.438C11.2293 2.146 11.5833 2 12 2C12.4167 2 12.7707 2.146 13.062 2.438C13.354 2.72933 13.5 3.08333 13.5 3.5V4.2C13.8167 4.26667 14.121 4.36233 14.413 4.487C14.7043 4.61233 14.9667 4.75833 15.2 4.925C14.7167 5.50833 14.3543 6.14167 14.113 6.825C13.871 7.50833 13.75 8.23333 13.75 9C13.75 10.4167 14.1373 11.6627 14.912 12.738C15.6873 13.8127 16.7167 14.6 18 15.1V17H19C19.2833 17 19.5207 17.096 19.712 17.288C19.904 17.4793 20 17.7167 20 18C20 18.2833 19.904 18.5207 19.712 18.712C19.5207 18.904 19.2833 19 19 19H5Z" fill="black"/>
</svg>
