<svg width="24" height="24" viewBox="0 0 24 24" fill="none" xmlns="http://www.w3.org/2000/svg">
<path d="M12 16.275C12.0833 16.275 12.1707 16.25 12.262 16.2C12.354 16.15 12.4167 16.075 12.45 15.975L13.55 13.55L15.975 12.45C16.075 12.4167 16.15 12.354 16.2 12.262C16.25 12.1707 16.275 12.0833 16.275 12C16.275 11.9167 16.25 11.8293 16.2 11.738C16.15 11.646 16.075 11.5833 15.975 11.55L13.55 10.45L12.45 8.025C12.4167 7.925 12.354 7.85 12.262 7.8C12.1707 7.75 12.0833 7.725 12 7.725C11.9167 7.725 11.8293 7.75 11.738 7.8C11.646 7.85 11.5833 7.925 11.55 8.025L10.45 10.45L8.025 11.55C7.925 11.5833 7.85 11.646 7.8 11.738C7.75 11.8293 7.725 11.9167 7.725 12C7.725 12.0833 7.75 12.1707 7.8 12.262C7.85 12.354 7.925 12.4167 8.025 12.45L10.45 13.55L11.55 15.975C11.5833 16.075 11.646 16.15 11.738 16.2C11.8293 16.25 11.9167 16.275 12 16.275ZM5 21C4.45 21 3.979 20.8043 3.587 20.413C3.19567 20.021 3 19.55 3 19V5C3 4.45 3.19567 3.979 3.587 3.587C3.979 3.19567 4.45 3 5 3H19C19.55 3 20.021 3.19567 20.413 3.587C20.8043 3.979 21 4.45 21 5V19C21 19.55 20.8043 20.021 20.413 20.413C20.021 20.8043 19.55 21 19 21H5Z" fill="black"/>
</svg>
