<svg width="96" height="96" viewBox="0 0 96 96" fill="none" xmlns="http://www.w3.org/2000/svg">
<g clip-path="url(#clip0_292_963)">
<path d="M26.48 43.16C32.24 54.48 41.52 63.72 52.84 69.52L61.64 60.72C62.72 59.64 64.32 59.28 65.72 59.76C70.2 61.24 75.04 62.04 80 62.04C82.2 62.04 84 63.84 84 66.04V80C84 82.2 82.2 84 80 84C42.44 84 12 53.56 12 16C12 13.8 13.8 12 16 12H30C32.2 12 34 13.8 34 16C34 21 34.8 25.8 36.28 30.28C36.72 31.68 36.4 33.24 35.28 34.36L26.48 43.16Z" fill="#7E9DED"/>
</g>
<defs>
<clipPath id="clip0_292_963">
<rect width="96" height="96" fill="white"/>
</clipPath>
</defs>
</svg>
