<svg width="24" height="24" viewBox="0 0 24 24" fill="none" xmlns="http://www.w3.org/2000/svg">
<path d="M12 22C9.66667 22 7.65433 21.2334 5.963 19.7001C4.271 18.1667 3.3 16.2667 3.05 14C3.01667 13.7334 3.096 13.5 3.288 13.3C3.47933 13.1 3.71667 13 4 13C4.26667 13 4.50433 13.0957 4.713 13.287C4.921 13.479 5.04167 13.7167 5.075 14C5.30833 15.7167 6.075 17.146 7.375 18.288C8.675 19.4294 10.2167 20 12 20C13.95 20 15.604 19.3207 16.962 17.962C18.3207 16.604 19 14.95 19 13C19 11.05 18.3207 9.39571 16.962 8.03705C15.604 6.67905 13.95 6.00005 12 6.00005H11.85L12.725 6.87505C12.9083 7.05838 13 7.29172 13 7.57505C13 7.85838 12.9083 8.09171 12.725 8.27505C12.525 8.47505 12.2833 8.57505 12 8.57505C11.7167 8.57505 11.4833 8.47505 11.3 8.27505L8.7 5.70005C8.6 5.60005 8.52933 5.49172 8.488 5.37505C8.446 5.25838 8.425 5.13338 8.425 5.00005C8.425 4.86672 8.446 4.74172 8.488 4.62505C8.52933 4.50838 8.6 4.40005 8.7 4.30005L11.3 1.70005C11.4833 1.51672 11.7167 1.42505 12 1.42505C12.2833 1.42505 12.525 1.51672 12.725 1.70005C12.9083 1.90005 13 2.14172 13 2.42505C13 2.70838 12.9083 2.94172 12.725 3.12505L11.85 4.00005H12C13.25 4.00005 14.421 4.23772 15.513 4.71305C16.6043 5.18772 17.5543 5.82905 18.363 6.63705C19.171 7.44572 19.8127 8.39572 20.288 9.48705C20.7627 10.579 21 11.75 21 13C21 14.25 20.7627 15.4207 20.288 16.512C19.8127 17.604 19.171 18.554 18.363 19.362C17.5543 20.1707 16.6043 20.8127 15.513 21.288C14.421 21.7627 13.25 22 12 22Z" fill="black"/>
</svg>
