<svg width="24" height="24" viewBox="0 0 24 24" fill="none" xmlns="http://www.w3.org/2000/svg">
<path d="M18 23C17.0333 23 16.1583 22.7542 15.375 22.2625C14.5917 21.7708 13.9917 21.125 13.575 20.325C13.475 20.1417 13.4625 19.95 13.5375 19.75C13.6125 19.55 13.7417 19.4083 13.925 19.325C14.1083 19.2417 14.2958 19.2292 14.4875 19.2875C14.6792 19.3458 14.825 19.4667 14.925 19.65C15.2083 20.2 15.6208 20.6458 16.1625 20.9875C16.7042 21.3292 17.3167 21.5 18 21.5C18.9667 21.5 19.7917 21.1583 20.475 20.475C21.1583 19.7917 21.5 18.9667 21.5 18C21.5 17.0333 21.1583 16.2083 20.475 15.525C19.7917 14.8417 18.9667 14.5 18 14.5C17.5167 14.5 17.0667 14.5875 16.65 14.7625C16.2333 14.9375 15.8667 15.1833 15.55 15.5H16.25C16.4667 15.5 16.6458 15.5708 16.7875 15.7125C16.9292 15.8542 17 16.0333 17 16.25C17 16.4667 16.9292 16.6458 16.7875 16.7875C16.6458 16.9292 16.4667 17 16.25 17H14C13.7167 17 13.4792 16.9042 13.2875 16.7125C13.0958 16.5208 13 16.2833 13 16V13.75C13 13.5333 13.0708 13.3542 13.2125 13.2125C13.3542 13.0708 13.5333 13 13.75 13C13.9667 13 14.1458 13.0708 14.2875 13.2125C14.4292 13.3542 14.5 13.5333 14.5 13.75V14.425C14.95 13.9917 15.475 13.6458 16.075 13.3875C16.675 13.1292 17.3167 13 18 13C19.3833 13 20.5625 13.4875 21.5375 14.4625C22.5125 15.4375 23 16.6167 23 18C23 19.3833 22.5125 20.5625 21.5375 21.5375C20.5625 22.5125 19.3833 23 18 23ZM8 9H16C16.2833 9 16.5208 8.90417 16.7125 8.7125C16.9042 8.52083 17 8.28333 17 8C17 7.71667 16.9042 7.47917 16.7125 7.2875C16.5208 7.09583 16.2833 7 16 7H8C7.71667 7 7.47917 7.09583 7.2875 7.2875C7.09583 7.47917 7 7.71667 7 8C7 8.28333 7.09583 8.52083 7.2875 8.7125C7.47917 8.90417 7.71667 9 8 9ZM5 21C4.45 21 3.97917 20.8042 3.5875 20.4125C3.19583 20.0208 3 19.55 3 19V5C3 4.45 3.19583 3.97917 3.5875 3.5875C3.97917 3.19583 4.45 3 5 3H19C19.55 3 20.0208 3.19583 20.4125 3.5875C20.8042 3.97917 21 4.45 21 5V10.575C20.5167 10.3917 20.025 10.25 19.525 10.15C19.025 10.05 18.5167 10 18 10C17.3 10 16.625 10.0875 15.975 10.2625C15.325 10.4375 14.7083 10.6833 14.125 11H8C7.71667 11 7.47917 11.0958 7.2875 11.2875C7.09583 11.4792 7 11.7167 7 12C7 12.2833 7.09583 12.5208 7.2875 12.7125C7.47917 12.9042 7.71667 13 8 13H11.75C11.5167 13.3 11.3 13.6167 11.1 13.95C10.9 14.2833 10.725 14.6333 10.575 15H8C7.71667 15 7.47917 15.0958 7.2875 15.2875C7.09583 15.4792 7 15.7167 7 16C7 16.2833 7.09583 16.5208 7.2875 16.7125C7.47917 16.9042 7.71667 17 8 17H10.05C10.0167 17.1667 10 17.3292 10 17.4875V18C10 18.5167 10.05 19.025 10.15 19.525C10.25 20.025 10.3917 20.5167 10.575 21H5Z" fill="black"/>
</svg>
